<?xml version="1.0" encoding="utf-8"?>
<!-- Generator: Adobe Adobe Illustrator 24.2.0, SVG Export Plug-In . SVG Version: 6.00 Build 0)  -->
<svg version="1.1" xmlns="http://www.w3.org/2000/svg" xmlns:xlink="http://www.w3.org/1999/xlink" x="0px" y="0px"
	 width="1215.84px" height="463.68px" viewBox="0 0 1215.84 463.68" style="enable-background:new 0 0 1215.84 463.68;"
	 xml:space="preserve">
<style type="text/css">
	.st0{fill:#4C50DD;}
	.st1{fill:#F3F3F3;}
	.st2{fill:#515151;}
	.st3{fill:#A2A2A2;}
</style>
<g id="Layer_1">
	<g>
		<ellipse class="st1" cx="155.72" cy="198.5" rx="46.74" ry="47.26"/>
		<g>
			<g>
				<polygon points="192.8,100.21 192.8,25 86,25 73.8,25 0,25 0,372 73.8,372 86,372 192.8,372 192.8,295 86,295 86,100.21 				"/>
			</g>
		</g>
		<g>
			<g>
				<path d="M419.51,0v160.24c-19.72-18.19-45.15-29.15-72.93-29.15c-62.64,0-113.43,55.74-113.43,124.5
					c0,68.76,50.78,124.5,113.43,124.5c27.77,0,53.21-10.96,72.93-29.15V372h81V0H419.51z M368.51,311.5c-29.27,0-53-25.3-53-56.5
					s23.73-56.5,53-56.5c24.27,0,44.72,17.4,51,41.14v30.73C413.23,294.1,392.79,311.5,368.51,311.5z"/>
			</g>
		</g>
		<g>
			<polygon points="567.74,479.93 741.77,136.51 826.06,136.86 648.54,480.28 			"/>
			<g>
				<g>
					<polygon points="744.15,134.12 685.87,249.13 624.94,136.51 530.48,137.32 639.77,340.11 570.12,477.55 650.92,477.9 
						828.44,134.48 					"/>
				</g>
			</g>
		</g>
		<g>
			<g>
				<g>
					<path d="M1114.72,172.09c2.16,9.58,3.32,19.68,3.32,30.11c0,61.58-40.29,111.5-90,111.5s-90-49.92-90-111.5
						c0-61.58,40.29-111.5,90-111.5c31.32,0,58.9,19.83,75.02,49.9l82.52-35.96c-31.44-54.86-89.59-91.69-156.14-91.69
						c-99.95,0-180.98,83.07-180.98,185.55s81.03,185.55,180.98,185.55c99.95,0,180.98-83.07,180.98-185.55
						c0-8.97-0.63-17.79-1.83-26.41H1114.72z"/>
				</g>
			</g>
			<rect x="1024.45" y="172.09" width="175" height="77.33"/>
		</g>
	</g>
</g>
<g id="Layer_2">
</g>
</svg>
